REM DIRINDEX 1\2,1\3\7,1\3\8,1\4\9,1\4\10,1\4\11,1\5\12,1\5\13,1\5\14,1\6\15,1\6\16,1\6\17
REM DIRNAME "folder01","folder02","folder03","folder04","folder05","folder06","folder07","folder08","folder09","folder10","folder11","folder12","folder13","folder14","folder15","folder16","folder17"
TITLE ""
FILE "2Q_j_1356-1369.mp3" MP3
  TRACK 01 AUDIO
    TITLE "0:"
    INDEX 01 00:00:00
  TRACK 02 AUDIO
    TITLE "9:cjc174_0284"
    INDEX 01 00:00:18
  TRACK 03 AUDIO
    TITLE "0:"
    INDEX 01 00:01:57
  TRACK 04 AUDIO
    TITLE "10:cjc174_0285"
    INDEX 01 00:02:29
  TRACK 05 AUDIO
    TITLE "0:"
    INDEX 01 00:03:69
  TRACK 06 AUDIO
    TITLE "11:cjc174_0286"
    INDEX 01 00:04:39
  TRACK 07 AUDIO
    TITLE "0:"
    INDEX 01 00:07:40
  TRACK 08 AUDIO
    TITLE "9:cjc174_0287"
    INDEX 01 00:08:10
  TRACK 09 AUDIO
    TITLE "0:"
    INDEX 01 00:09:29
  TRACK 10 AUDIO
    TITLE "10:cjc174_0288"
    INDEX 01 00:09:74
  TRACK 11 AUDIO
    TITLE "0:"
    INDEX 01 00:12:39
  TRACK 12 AUDIO
    TITLE "11:cjc174_0289"
    INDEX 01 00:13:09
  TRACK 13 AUDIO
    TITLE "0:"
    INDEX 01 00:16:03
  TRACK 14 AUDIO
    TITLE "9:cjc174_0290"
    INDEX 01 00:16:49
  TRACK 15 AUDIO
    TITLE "0:"
    INDEX 01 00:17:64
  TRACK 16 AUDIO
    TITLE "10:cjc174_0291"
    INDEX 01 00:18:34
  TRACK 17 AUDIO
    TITLE "0:"
    INDEX 01 00:24:36
  TRACK 18 AUDIO
    TITLE "11:cjc174_0292"
    INDEX 01 00:25:06
  TRACK 19 AUDIO
    TITLE "0:"
    INDEX 01 00:28:48
  TRACK 20 AUDIO
    TITLE "9:cjc174_0293"
    INDEX 01 00:29:18
  TRACK 21 AUDIO
    TITLE "0:"
    INDEX 01 00:30:60
  TRACK 22 AUDIO
    TITLE "10:cjc174_0294"
    INDEX 01 00:31:30
  TRACK 23 AUDIO
    TITLE "0:"
    INDEX 01 00:33:37
  TRACK 24 AUDIO
    TITLE "11:cjc174_0295"
    INDEX 01 00:34:07
  TRACK 25 AUDIO
    TITLE "0:"
    INDEX 01 00:38:60
  TRACK 26 AUDIO
    TITLE "9:cjc174_0296"
    INDEX 01 00:39:40
  TRACK 27 AUDIO
    TITLE "0:"
    INDEX 01 00:41:64
  TRACK 28 AUDIO
    TITLE "10:cjc174_0297"
    INDEX 01 00:42:34
  TRACK 29 AUDIO
    TITLE "0:"
    INDEX 01 00:45:25
  TRACK 30 AUDIO
    TITLE "11:cjc174_0298"
    INDEX 01 00:45:70
  TRACK 31 AUDIO
    TITLE "0:"
    INDEX 01 00:49:73
  TRACK 32 AUDIO
    TITLE "9:cjc174_0299"
    INDEX 01 00:50:45
  TRACK 33 AUDIO
    TITLE "0:"
    INDEX 01 00:52:44
  TRACK 34 AUDIO
    TITLE "10:cjc174_0300"
    INDEX 01 00:53:16
  TRACK 35 AUDIO
    TITLE "0:"
    INDEX 01 00:55:37
  TRACK 36 AUDIO
    TITLE "11:cjc174_0301"
    INDEX 01 00:56:05
  TRACK 37 AUDIO
    TITLE "0:"
    INDEX 01 00:59:48
  TRACK 38 AUDIO
    TITLE "9:cjc174_0302"
    INDEX 01 01:00:26
  TRACK 39 AUDIO
    TITLE "0:"
    INDEX 01 01:01:59
  TRACK 40 AUDIO
    TITLE "10:cjc174_0303"
    INDEX 01 01:02:29
  TRACK 41 AUDIO
    TITLE "0:"
    INDEX 01 01:04:06
  TRACK 42 AUDIO
    TITLE "11:cjc174_0304"
    INDEX 01 01:04:51
  TRACK 43 AUDIO
    TITLE "0:"
    INDEX 01 01:07:64
  TRACK 44 AUDIO
    TITLE "9:cjc174_0305"
    INDEX 01 01:08:37
  TRACK 45 AUDIO
    TITLE "0:"
    INDEX 01 01:09:70
  TRACK 46 AUDIO
    TITLE "10:cjc174_0306"
    INDEX 01 01:10:40
  TRACK 47 AUDIO
    TITLE "0:"
    INDEX 01 01:12:14
  TRACK 48 AUDIO
    TITLE "11:cjc174_0307"
    INDEX 01 01:12:59
  TRACK 49 AUDIO
    TITLE "0:"
    INDEX 01 01:17:05
  TRACK 50 AUDIO
    TITLE "9:cjc174_0308"
    INDEX 01 01:17:56
  TRACK 51 AUDIO
    TITLE "0:"
    INDEX 01 01:19:63
  TRACK 52 AUDIO
    TITLE "10:cjc174_0309"
    INDEX 01 01:20:37
  TRACK 53 AUDIO
    TITLE "0:"
    INDEX 01 01:22:24
  TRACK 54 AUDIO
    TITLE "11:cjc174_0310"
    INDEX 01 01:22:69
  TRACK 55 AUDIO
    TITLE "0:"
    INDEX 01 01:26:24
  TRACK 56 AUDIO
    TITLE "9:cjc174_0311"
    INDEX 01 01:26:75
  TRACK 57 AUDIO
    TITLE "0:"
    INDEX 01 01:28:13
  TRACK 58 AUDIO
    TITLE "10:cjc174_0312"
    INDEX 01 01:28:58
  TRACK 59 AUDIO
    TITLE "0:"
    INDEX 01 01:32:44
  TRACK 60 AUDIO
    TITLE "11:cjc174_0313"
    INDEX 01 01:33:14
  TRACK 61 AUDIO
    TITLE "0:"
    INDEX 01 01:36:75
  TRACK 62 AUDIO
    TITLE "9:cjc174_0314"
    INDEX 01 01:37:49
  TRACK 63 AUDIO
    TITLE "0:"
    INDEX 01 01:39:07
  TRACK 64 AUDIO
    TITLE "10:cjc174_0315"
    INDEX 01 01:39:54
  TRACK 65 AUDIO
    TITLE "0:"
    INDEX 01 01:41:31
  TRACK 66 AUDIO
    TITLE "11:cjc174_0316"
    INDEX 01 01:42:01
  TRACK 67 AUDIO
    TITLE "0:"
    INDEX 01 01:47:12
  TRACK 68 AUDIO
    TITLE "9:cjc174_0317"
    INDEX 01 01:47:57
  TRACK 69 AUDIO
    TITLE "0:"
    INDEX 01 01:49:27
  TRACK 70 AUDIO
    TITLE "10:cjc174_0318"
    INDEX 01 01:49:74
  TRACK 71 AUDIO
    TITLE "0:"
    INDEX 01 01:51:67
  TRACK 72 AUDIO
    TITLE "11:cjc174_0319"
    INDEX 01 01:52:35
  TRACK 73 AUDIO
    TITLE "0:"
    INDEX 01 01:56:21
  TRACK 74 AUDIO
    TITLE "9:cjc174_0320"
    INDEX 01 01:56:66
  TRACK 75 AUDIO
    TITLE "0:"
    INDEX 01 01:58:75
  TRACK 76 AUDIO
    TITLE "10:cjc174_0321"
    INDEX 01 01:59:51
  TRACK 77 AUDIO
    TITLE "0:"
    INDEX 01 02:04:01
  TRACK 78 AUDIO
    TITLE "11:cjc174_0322"
    INDEX 01 02:04:46
  TRACK 79 AUDIO
    TITLE "0:"
    INDEX 01 02:09:41
  TRACK 80 AUDIO
    TITLE "9:cjc174_0323"
    INDEX 01 02:10:15
  TRACK 81 AUDIO
    TITLE "0:"
    INDEX 01 02:11:65
  TRACK 82 AUDIO
    TITLE "10:cjc174_0324"
    INDEX 01 02:12:36
  TRACK 83 AUDIO
    TITLE "0:"
    INDEX 01 02:16:55
  TRACK 84 AUDIO
    TITLE "11:cjc174_0325"
    INDEX 01 02:17:25
  TRACK 85 AUDIO
    TITLE "0:"
    INDEX 01 02:21:74
